<svg width="256" height="256" version="1.1" viewBox="0 0 256 256" xmlns="http://www.w3.org/2000/svg" xmlns:xlink="http://www.w3.org/1999/xlink">
 <defs>
  <radialGradient id="b" cx="16" cy="16" r="10.6" gradientTransform="matrix(8 0 0 6.939 -3.49e-6 16.98)" gradientUnits="userSpaceOnUse">
   <stop stop-color="#d88092" offset="0"/>
   <stop stop-color="#00a8cc" stop-opacity=".1864" offset="1"/>
  </radialGradient>
  <radialGradient id="a" cx="16" cy="16" r="10.6" gradientTransform="matrix(8 0 0 6.939 -3.49e-6 16.98)" gradientUnits="userSpaceOnUse">
   <stop stop-color="#ea23e9" offset="0"/>
   <stop stop-color="#ea23e9" stop-opacity="0" offset="1"/>
  </radialGradient>
 </defs>
 <g>
  <path d="m128 174.9c-1.055-2e-3 -2.106-1.694-2.69-4.903-0.5848-3.21-0.692-7.935 8e-4 -13.69 0.692-5.751 2.194-12.52 4.59-19.62 2.395-7.102 5.69-14.53 9.694-21.54s8.714-13.59 13.7-19.13c4.982-5.537 10.23-10.01 15.16-13.06 4.932-3.046 9.538-4.65 13.23-4.757s6.457 1.286 7.85 3.919c1.394 2.633 1.403 6.505-0.1528 11.11-1.556 4.61-4.687 9.95-9.249 15.41-4.561 5.459-10.56 11.03-17.53 16.14-6.973 5.106-14.92 9.739-23.16 13.5-8.238 3.763-16.76 6.647-24.79 8.518s-15.56 2.726-21.9 2.713c-6.338-0.0128-11.47-0.8928-14.93-2.259-3.463-1.366-5.244-3.214-5.211-5.04 0.0328-1.827 1.889-3.623 5.343-4.909 3.454-1.286 8.508-2.049 14.63-1.963 6.124 0.0848 13.31 1.029 20.85 2.906s15.41 4.695 22.87 8.246c7.462 3.552 14.5 7.838 20.5 12.41 5.995 4.574 10.93 9.428 14.46 13.98 3.523 4.553 5.619 8.794 6.252 12.15 0.632 3.354-0.2048 5.806-2.237 6.936s-5.259 0.9248-9.178-0.7656c-3.919-1.69-8.524-4.877-13.22-9.384-4.692-4.507-9.462-10.34-13.76-17.02-4.303-6.68-8.13-14.2-11.12-21.89-2.99-7.683-5.138-15.51-6.346-22.74-1.209-7.226-1.477-13.83-0.9864-19.17 0.4896-5.335 1.737-9.384 3.34-11.73 1.604-2.35 3.558-2.99 5.36-1.843s3.443 4.089 4.461 8.548c1.017 4.46 1.4 10.44 0.8568 17.37-0.5432 6.93-2.022 14.8-4.47 22.89-2.447 8.083-5.869 16.36-10.02 24.1-4.148 7.734-9.022 14.91-14.14 20.93-5.122 6.022-10.48 10.88-15.49 14.24-5.008 3.366-9.65 5.234-13.36 5.606-3.706 0.372-6.462-0.756-7.871-3.076-1.409-2.32-1.458-5.83-0.0312-10.01 1.427-4.178 4.338-9.017 8.524-13.92 4.186-4.9 9.649-9.853 15.88-14.33 6.235-4.477 13.24-8.468 20.31-11.64 7.07-3.178 14.2-5.534 20.64-7.01 6.442-1.478 12.18-2.073 16.6-2.002 4.416 0.0704 7.493 0.8048 8.865 1.783 1.372 0.9792 1.026 2.194-1.058 3.143-2.085 0.9488-5.917 1.62-11.17 1.57-5.25-0.0496-11.92-0.832-19.4-2.605-7.482-1.774-15.77-4.546-24.1-8.309-8.334-3.763-16.7-8.52-24.37-13.98-7.662-5.46-14.6-11.62-20.25-17.97-5.644-6.348-9.977-12.88-12.71-18.97s-3.858-11.73-3.413-16.33c0.4449-4.609 2.463-8.176 5.712-10.31 3.249-2.135 7.727-2.824 12.89-1.969 5.16 0.8554 11 3.265 16.89 7.001 5.899 3.736 11.85 8.802 17.33 14.68 5.481 5.879 10.48 12.57 14.67 19.37 4.194 6.802 7.579 13.7 10.1 19.98 2.523 6.28 4.182 11.92 5.19 16.33 1.009 4.41 1.37 7.571 1.489 9.157s8e-4 1.582 0.1184 0 0.4808-4.75 1.489-9.157c1.007-4.407 2.669-10.05 5.19-16.33 2.521-6.278 5.909-13.18 10.1-19.98 4.194-6.802 9.194-13.49 14.67-19.37s11.43-10.94 17.33-14.68 11.73-6.143 16.89-7.001c5.161-0.8585 9.635-0.163 12.89 1.969 3.251 2.132 5.265 5.704 5.713 10.31s-0.6824 10.25-3.413 16.33c-2.731 6.088-7.07 12.62-12.71 18.97-5.642 6.35-12.59 12.51-20.25 17.97-7.661 5.462-16.03 10.22-24.37 13.98-8.334 3.765-16.62 6.534-24.1 8.309s-14.15 2.554-19.4 2.605c-5.254 0.0512-9.08-0.6224-11.17-1.57-2.089-0.9488-2.427-2.164-1.058-3.143 1.369-0.9784 4.451-1.711 8.865-1.783 4.414-0.072 10.16 0.5272 16.6 2.002s13.57 3.834 20.64 7.01c7.07 3.175 14.07 7.169 20.31 11.64 6.236 4.475 11.7 9.428 15.88 14.33 4.188 4.901 7.094 9.738 8.524 13.92s1.375 7.686-0.0312 10.01-4.167 3.445-7.871 3.076c-3.704-0.3696-8.348-2.243-13.36-5.606-5.008-3.364-10.37-8.225-15.49-14.24-5.123-6.019-9.994-13.2-14.14-20.93s-7.567-16.02-10.02-24.1-3.925-15.96-4.47-22.89-0.1592-12.91 0.8568-17.37c1.017-4.462 2.659-7.398 4.461-8.548 1.802-1.15 3.755-0.5042 5.36 1.843 1.604 2.347 2.849 6.401 3.34 11.73 0.492 5.333 0.2208 11.94-0.9864 19.17-1.207 7.224-3.358 15.06-6.346 22.74-2.989 7.682-6.818 15.21-11.12 21.89-4.302 6.682-9.072 12.51-13.76 17.02-4.692 4.51-9.295 7.69-13.22 9.384s-7.143 1.893-9.178 0.7656c-2.035-1.128-2.866-3.584-2.237-6.936 0.6295-3.352 2.732-7.594 6.252-12.15 3.52-4.554 8.464-9.407 14.46-13.98 5.993-4.574 13.03-8.857 20.5-12.41 7.462-3.553 15.34-6.367 22.87-8.246 7.538-1.88 14.72-2.819 20.85-2.906s11.18 0.6784 14.63 1.963c3.457 1.284 5.306 3.082 5.342 4.909 0.036 1.826-1.751 3.672-5.211 5.04-3.46 1.367-8.596 2.244-14.93 2.259-6.335 0.0152-13.87-0.8432-21.9-2.713-8.03-1.87-16.55-4.757-24.79-8.518-8.238-3.761-16.18-8.396-23.16-13.5-6.975-5.106-12.97-10.68-17.53-16.14-4.564-5.46-7.69-10.8-9.248-15.41-1.559-4.611-1.544-8.479-0.1533-11.11 1.391-2.635 4.16-4.024 7.851-3.919 3.69 0.105 8.298 1.714 13.23 4.757 4.932 3.043 10.18 7.526 15.16 13.06 4.983 5.534 9.691 12.12 13.7 19.13 4.004 7.009 7.296 14.43 9.694 21.54 2.398 7.103 3.896 13.87 4.59 19.62 0.6944 5.752 0.5848 10.47 8e-4 13.69-0.5832 3.212-1.634 4.902-2.69 4.903" fill="url(#b)" fill-rule="evenodd" stroke="url(#a)" stroke-linecap="round" stroke-width=".8" title="sin(t)*(pow(2,cos(t))-2*cos(4*t)-pow(sin(t/4),4)) cos(t)*(pow(2,cos(t))-2*cos(4*t)-pow(sin(t/4),4))"/>
  <text x="-302.91406" y="-63.0625" fill="#000000" font-family="sans-serif" font-size="32px" stroke-width="8" style="line-height:1.25" xml:space="preserve"><tspan x="-302.91406" y="-63.0625" style="font-variant-caps:normal;font-variant-east-asian:normal;font-variant-ligatures:normal;font-variant-numeric:normal">x=sin(t)*(pow(2,cos(t))-2*cos(4*t)-pow(sin(t/4),4))</tspan><tspan x="-302.91406" y="336.9375" style="font-variant-caps:normal;font-variant-east-asian:normal;font-variant-ligatures:normal;font-variant-numeric:normal">y=cos(t)*(pow(2,cos(t))-2*cos(4*t)-pow(sin(t/4),4))</tspan></text>
 </g>
</svg>
